<?xml version="1.0" encoding="UTF-8" standalone="no"?>
<!-- Created with Inkscape (http://www.inkscape.org/) -->

<svg
   xmlns:dc="http://purl.org/dc/elements/1.1/"
   xmlns:cc="http://creativecommons.org/ns#"
   xmlns:rdf="http://www.w3.org/1999/02/22-rdf-syntax-ns#"
   xmlns:svg="http://www.w3.org/2000/svg"
   xmlns="http://www.w3.org/2000/svg"
   xmlns:sodipodi="http://sodipodi.sourceforge.net/DTD/sodipodi-0.dtd"
   xmlns:inkscape="http://www.inkscape.org/namespaces/inkscape"
   width="400"
   height="300"
   viewBox="0 0 105.83333 79.375002"
   version="1.1"
   id="svg8"
   inkscape:version="0.92.3 (2405546, 2018-03-11)"
   sodipodi:docname="stundensaldo.svg">
  <defs
     id="defs2" />
  <sodipodi:namedview
     id="base"
     pagecolor="#ffffff"
     bordercolor="#666666"
     borderopacity="1.0"
     inkscape:pageopacity="0.0"
     inkscape:pageshadow="2"
     inkscape:zoom="0.7"
     inkscape:cx="91.970133"
     inkscape:cy="157.09235"
     inkscape:document-units="mm"
     inkscape:current-layer="layer1"
     showgrid="false"
     units="px"
     inkscape:window-width="1366"
     inkscape:window-height="705"
     inkscape:window-x="0"
     inkscape:window-y="30"
     inkscape:window-maximized="1"
     showguides="true"
     inkscape:guide-bbox="true" />
  <metadata
     id="metadata5">
    <rdf:RDF>
      <cc:Work
         rdf:about="">
        <dc:format>image/svg+xml</dc:format>
        <dc:type
           rdf:resource="http://purl.org/dc/dcmitype/StillImage" />
        <dc:title></dc:title>
      </cc:Work>
    </rdf:RDF>
  </metadata>
  <g
     inkscape:label="Layer 1"
     inkscape:groupmode="layer"
     id="layer1"
     transform="translate(0,-217.62498)">
    <path
       style="fill:#b3b3b3;fill-opacity:1;stroke:none;stroke-width:0.20241153"
       d="m 83.879929,225.93558 -64.711295,14.34331 0.889351,4.01164 -8.9116,23.06475 a 10.156241,10.156241 0 0 0 -0.0067,0.13332 10.156241,10.156241 0 0 0 10.156486,10.15649 10.156241,10.156241 0 0 0 10.155967,-10.15649 10.156241,10.156241 0 0 0 -0.0046,-0.13332 l -8.980848,-23.24561 26.834537,-5.94796 v 43.53274 h -12.37909 v 6.99234 h 31.75 v -6.99234 H 56.2935 v -45.08303 l 26.00203,-5.76348 -8.912635,23.06785 a 10.156241,10.156241 0 0 0 -0.0067,0.13332 10.156241,10.156241 0 0 0 10.156486,10.15649 10.156241,10.156241 0 0 0 10.155968,-10.15649 10.156241,10.156241 0 0 0 -0.0046,-0.13332 l -8.985498,-23.2575 0.145211,-0.37517 z m -0.346234,7.73803 7.820194,20.24218 H 75.712985 Z m -62.236509,13.43949 7.820196,20.24218 H 13.476475 Z"
       id="rect904"
       inkscape:connector-curvature="0" />
  </g>
</svg>
